<svg xmlns="http://www.w3.org/2000/svg" viewBox="0 0 187.34 166.9"><defs><style>.cls-1{fill:none;}.cls-2{fill:red;}.cls-3{fill:#00ff4e;}.cls-4{fill:#031cff;}</style></defs><g id="Layer_2" data-name="Layer 2"><g id="Layer_1-2" data-name="Layer 1"><path class="cls-1" d="M87.43,142.13A93.41,93.41,0,0,1,57.21,76.25,87.23,87.23,0,0,0,6.55,155.34c0,.17,0,.33,0,.49a86.84,86.84,0,0,0,80.87-13.7Z"/><path class="cls-1" d="M127.83,75.21a93.42,93.42,0,0,1-30.25,66.92A87,87,0,0,0,180.78,155,87.26,87.26,0,0,0,127.83,75.21Z"/><path class="cls-1" d="M64,66.53a93.5,93.5,0,0,1,57-.78A86.92,86.92,0,0,0,92.5,8.56,86.93,86.93,0,0,0,64,66.53Z"/><path class="cls-1" d="M92.5,137.91a86.91,86.91,0,0,0,28.83-64.67c0-.17,0-.33,0-.49a87,87,0,0,0-57.62.79A86.92,86.92,0,0,0,92.5,137.91Z"/><path class="cls-2" d="M57.21,76.25c0-1-.08-2-.08-3,0-1.41,0-2.8.11-4.19A93.8,93.8,0,0,0,.05,153.37c2.13.91,4.3,1.72,6.51,2.46,0-.16,0-.32,0-.49A87.23,87.23,0,0,1,57.21,76.25Z"/><path class="cls-2" d="M64,66.53c-.17,2.22-.29,4.45-.29,6.71,0,.1,0,.2,0,.3a87,87,0,0,1,57.62-.79c0-2.36-.13-4.69-.33-7a93.5,93.5,0,0,0-57,.78Z"/><path class="cls-2" d="M127.73,68.11c.09,1.7.15,3.41.15,5.13,0,.66,0,1.31,0,2a87.26,87.26,0,0,1,53,79.83c2.2-.81,4.36-1.73,6.48-2.71A93.82,93.82,0,0,0,127.73,68.11Z"/><path class="cls-3" d="M121.33,73.24A86.91,86.91,0,0,1,92.5,137.91c1.64,1.47,3.34,2.88,5.08,4.22a93.42,93.42,0,0,0,30.25-66.92c-2.13-.91-4.31-1.72-6.52-2.46C121.31,72.91,121.33,73.07,121.33,73.24Z"/><path class="cls-3" d="M121,65.75c2.29.7,4.54,1.5,6.75,2.36A93.38,93.38,0,0,0,97.58,4.34c-1.74,1.34-3.44,2.75-5.08,4.22A86.92,86.92,0,0,1,121,65.75Z"/><path class="cls-3" d="M92.5,146.47c-1.74-1.39-3.43-2.83-5.07-4.34a86.84,86.84,0,0,1-80.87,13.7c0,2.36.13,4.69.33,7A93.48,93.48,0,0,0,92.5,146.47Z"/><path class="cls-3" d="M127.83,75.21c0-.66,0-1.31,0-2,0-1.72-.06-3.43-.15-5.13-2.21-.86-4.46-1.66-6.75-2.36.2,2.31.32,4.64.33,7C123.52,73.49,125.7,74.3,127.83,75.21Z"/><path class="cls-3" d="M6.56,155.83c-2.21-.74-4.38-1.55-6.51-2.46,0,.66,0,1.31,0,2,0,1.72.05,3.43.15,5.12,2.21.87,4.45,1.67,6.74,2.37C6.69,160.52,6.57,158.19,6.56,155.83Z"/><path class="cls-4" d="M63.69,73.54c-2.2.81-4.36,1.73-6.48,2.71a93.41,93.41,0,0,0,30.22,65.88c1.74-1.34,3.44-2.75,5.07-4.22A86.92,86.92,0,0,1,63.69,73.54Z"/><path class="cls-4" d="M57.24,69.05c2.2-.93,4.45-1.76,6.73-2.52a86.93,86.93,0,0,1,28.53-58c-1.63-1.47-3.33-2.88-5.07-4.22A93.42,93.42,0,0,0,57.24,69.05Z"/><path class="cls-4" d="M97.58,142.13c-1.64,1.51-3.33,3-5.08,4.34a93.39,93.39,0,0,0,88,15.58c.17-2.22.28-4.45.28-6.71V155a87,87,0,0,1-83.2-12.91Z"/><path class="cls-4" d="M63.68,73.24c0-2.26.12-4.49.29-6.71-2.28.76-4.53,1.59-6.73,2.52-.06,1.39-.11,2.78-.11,4.19,0,1,0,2,.08,3,2.12-1,4.28-1.9,6.48-2.71C63.69,73.44,63.68,73.34,63.68,73.24Z"/><path class="cls-4" d="M187.26,152.33c-2.12,1-4.28,1.9-6.48,2.71v.3c0,2.26-.11,4.49-.28,6.71,2.28-.77,4.53-1.59,6.73-2.52.06-1.39.11-2.78.11-4.19C187.34,154.33,187.29,153.33,187.26,152.33Z"/><path class="cls-4" d="M92.5,8.56c1.64-1.47,3.34-2.88,5.08-4.22C95.94,2.83,94.25,1.39,92.5,0c-1.74,1.39-3.43,2.83-5.07,4.34C89.17,5.68,90.87,7.09,92.5,8.56Z"/><path class="cls-4" d="M87.43,142.13c1.64,1.51,3.33,3,5.07,4.34,1.75-1.39,3.44-2.83,5.08-4.34-1.74-1.34-3.44-2.75-5.08-4.22C90.87,139.38,89.17,140.79,87.43,142.13Z"/></g></g></svg>